# xmcd CD database file
#
# Track frame offsets:
#	182
#	11335
#	23100
#	36172
#	45742
#	61300
#	76150
#	93250
#	103827
#	117730
#	130885
#	150567
#	160895
#	174040
#
# Disc length: 2465 seconds
#
# Revision: 0
# Processed by: cddbd v1.5.2PL0 Copyright (c) Steve Scherf et al.
# Submitted via: CDex 1.70beta2
#
DISCID=a4099f0e
DTITLE=Žraloci z Chocerad - Krčma u Žraloka
DYEAR=1900
DGENRE=Country
TTITLE0=Jack Franch
TTITLE1=Salón U Krávy
TTITLE2=Můj kůň se loudá
TTITLE3=jen dál
TTITLE4=Zrzavej Johny
TTITLE5=Starý koráb
TTITLE6=Arizona
TTITLE7=Přijel Danny
TTITLE8=Dřevěnej spacák
TTITLE9=Můj hrob je moře
TTITLE10=Oči jako máma má
TTITLE11=Jižní kříž
TTITLE12=Potulný jezdec
TTITLE13=Sobotu, co sobotu
EXTD=
EXTT0=
EXTT1=
EXTT2=
EXTT3=
EXTT4=
EXTT5=
EXTT6=
EXTT7=
EXTT8=
EXTT9=
EXTT10=
EXTT11=
EXTT12=
EXTT13=
PLAYORDER=
